<svg width="15" height="12" viewBox="0 0 15 12" fill="none" xmlns="http://www.w3.org/2000/svg">
<path d="M0.636475 11.3603V7.30004C0.63801 5.916 1.1885 4.58909 2.16716 3.61043C3.14582 2.63177 4.47273 2.08128 5.85677 2.07975H8.65832V1.15982C8.65837 0.930414 8.72643 0.706176 8.85391 0.51545C8.98138 0.324724 9.16254 0.176073 9.37448 0.0882913C9.58643 0.000509114 9.81964 -0.0224635 10.0446 0.0222773C10.2696 0.0670182 10.4763 0.177464 10.6386 0.339652L14.0491 3.74966C14.3754 4.07598 14.5586 4.5185 14.5586 4.97991C14.5586 5.44132 14.3754 5.88384 14.0491 6.21016L10.6386 9.62017C10.4763 9.78236 10.2696 9.8928 10.0446 9.93754C9.81964 9.98228 9.58643 9.95931 9.37448 9.87153C9.16254 9.78375 8.98138 9.6351 8.85391 9.44437C8.72643 9.25364 8.65837 9.02941 8.65832 8.8V7.88007H5.27673C4.35401 7.88099 3.46935 8.24795 2.81688 8.90042C2.16442 9.55288 1.79746 10.4375 1.79654 11.3603C1.79654 11.5141 1.73543 11.6616 1.62665 11.7704C1.51787 11.8792 1.37034 11.9403 1.21651 11.9403C1.06267 11.9403 0.915139 11.8792 0.806362 11.7704C0.697585 11.6616 0.636475 11.5141 0.636475 11.3603ZM9.81839 2.65978C9.81839 2.81362 9.75728 2.96115 9.6485 3.06993C9.53972 3.1787 9.39219 3.23981 9.23835 3.23981H5.85677C4.7803 3.24104 3.74828 3.66921 2.98711 4.43038C2.22593 5.19156 1.79777 6.22358 1.79654 7.30004V8.29422C2.23131 7.79941 2.76664 7.40305 3.36678 7.13159C3.96691 6.86013 4.61806 6.71981 5.27673 6.72001H9.23835C9.39219 6.72001 9.53972 6.78112 9.6485 6.8899C9.75728 6.99867 9.81839 7.14621 9.81839 7.30004V8.8L13.2284 5.38999C13.3371 5.28122 13.3982 5.13371 13.3982 4.97991C13.3982 4.82611 13.3371 4.6786 13.2284 4.56983L9.81839 1.15982V2.65978Z" fill="black"/>
</svg>
