<svg width="100" height="40" viewBox="0 0 100 40" fill="none" xmlns="http://www.w3.org/2000/svg">
<path d="M0.5 0.5H95C97.4853 0.5 99.5 2.51472 99.5 5V35C99.5 37.4853 97.4853 39.5 95 39.5H0.5V0.5Z" fill="#FFA600" stroke="#D48A00"/>
<path d="M38.0568 25V16.2727H39.1136V20.1591H43.767V16.2727H44.8239V25H43.767V21.0966H39.1136V25H38.0568ZM49.5476 25.1364C48.9169 25.1364 48.3729 24.9972 47.9155 24.7188C47.4609 24.4375 47.1101 24.0455 46.8629 23.5426C46.6186 23.0369 46.4964 22.4489 46.4964 21.7784C46.4964 21.108 46.6186 20.517 46.8629 20.0057C47.1101 19.4915 47.4538 19.0909 47.8942 18.804C48.3374 18.5142 48.8544 18.3693 49.4453 18.3693C49.7862 18.3693 50.1229 18.4261 50.4553 18.5398C50.7876 18.6534 51.0902 18.8381 51.3629 19.0938C51.6357 19.3466 51.853 19.6818 52.0149 20.0994C52.1768 20.517 52.2578 21.0312 52.2578 21.642V22.0682H47.2124V21.1989H51.2351C51.2351 20.8295 51.1612 20.5 51.0135 20.2102C50.8686 19.9205 50.6612 19.6918 50.3913 19.5241C50.1243 19.3565 49.8089 19.2727 49.4453 19.2727C49.0447 19.2727 48.6982 19.3722 48.4055 19.571C48.1158 19.767 47.8928 20.0227 47.7365 20.3381C47.5803 20.6534 47.5021 20.9915 47.5021 21.3523V21.9318C47.5021 22.4261 47.5874 22.8452 47.7578 23.1889C47.9311 23.5298 48.1712 23.7898 48.478 23.9688C48.7848 24.1449 49.1413 24.233 49.5476 24.233C49.8118 24.233 50.0504 24.196 50.2635 24.1222C50.4794 24.0455 50.6655 23.9318 50.8217 23.7812C50.978 23.6278 51.0987 23.4375 51.1839 23.2102L52.1555 23.483C52.0533 23.8125 51.8814 24.1023 51.6399 24.3523C51.3984 24.5994 51.1001 24.7926 50.745 24.9318C50.3899 25.0682 49.9908 25.1364 49.5476 25.1364ZM54.7933 16.2727V25H53.7876V16.2727H54.7933ZM56.6353 27.4545V18.4545H57.6069V19.4943H57.7262C57.8001 19.3807 57.9023 19.2358 58.033 19.0597C58.1665 18.8807 58.3569 18.7216 58.604 18.5824C58.854 18.4403 59.1921 18.3693 59.6183 18.3693C60.1694 18.3693 60.6552 18.5071 61.0756 18.7827C61.4961 19.0582 61.8242 19.4489 62.06 19.9545C62.2958 20.4602 62.4137 21.0568 62.4137 21.7443C62.4137 22.4375 62.2958 23.0384 62.06 23.5469C61.8242 24.0526 61.4975 24.4446 61.0799 24.723C60.6623 24.9986 60.1808 25.1364 59.6353 25.1364C59.2148 25.1364 58.8782 25.0668 58.6254 24.9276C58.3725 24.7855 58.1779 24.625 58.0415 24.446C57.9052 24.2642 57.8001 24.1136 57.7262 23.9943H57.641V27.4545H56.6353ZM57.6239 21.7273C57.6239 22.2216 57.6964 22.6577 57.8413 23.0355C57.9862 23.4105 58.1978 23.7045 58.4762 23.9176C58.7546 24.1278 59.0955 24.233 59.4989 24.233C59.9194 24.233 60.2702 24.1222 60.5515 23.9006C60.8356 23.6761 61.0487 23.375 61.1907 22.9972C61.3356 22.6165 61.408 22.1932 61.408 21.7273C61.408 21.267 61.337 20.8523 61.195 20.483C61.0558 20.1108 60.8441 19.8168 60.56 19.6009C60.2788 19.3821 59.9251 19.2727 59.4989 19.2727C59.0898 19.2727 58.7461 19.3764 58.4677 19.5838C58.1893 19.7884 57.979 20.0753 57.837 20.4446C57.695 20.8111 57.6239 21.2386 57.6239 21.7273Z" fill="black"/>
<path d="M18.23 19.3539L20.5479 17.3652C23.7787 14.5933 23.8235 9.60514 20.6432 6.77544C17.7286 4.18227 13.2614 4.46283 10.6935 7.40033L8.68322 9.70001C7.34133 11.235 6.75761 13.2914 7.09262 15.3033C7.96344 20.5333 14.2082 22.8044 18.23 19.3539Z" fill="#D48A00" stroke="black"/>
<path d="M63.0383 30.1237L62.8183 29.82C61.143 27.5068 57.998 27.3788 56.1731 29.5496C54.6844 31.3205 54.6033 34.0318 55.9829 35.9073L56.2049 36.2092C57.9699 38.6086 61.2898 38.5947 63.0383 36.1806C64.3206 34.4101 64.3206 31.8942 63.0383 30.1237Z" fill="#D48A00" stroke="black"/>
<path d="M7.06705 32.5147L7.5 39.5H0.5L0.5 19.5L3.55926 23.3562C4.62416 24.6985 5.4716 26.2023 6.07015 27.8119C6.63138 29.3211 6.96735 30.906 7.06705 32.5147Z" fill="#D48A00" stroke="black"/>
<path d="M88.5276 2.82151L87.5375 2.49244C85.9486 1.96435 84.249 1.85884 82.6066 2.18635C81.374 2.43217 80.2015 2.91638 79.1555 3.61165L78.1167 4.30215C77.2436 4.88253 76.4301 5.54748 75.6881 6.28732L74.4831 7.48885C73.9919 7.97861 73.5715 8.53425 73.2342 9.13972L72.5665 10.3379C71.9255 11.4884 71.8232 12.8615 72.2866 14.0938C72.6619 15.0917 73.3811 15.9239 74.3155 16.4414L76.8039 17.8198L78.2992 18.6481C79.8998 19.5348 81.7006 20 83.5315 20C84.5801 20 85.6231 19.8474 86.6274 19.547L87.2345 19.3654C88.7124 18.9233 90.0571 18.1224 91.1481 17.0346C92.0706 16.1149 92.7892 15.0124 93.2575 13.7984L93.4665 13.2563C94.2739 11.1635 94.1608 8.82864 93.155 6.82311C92.2058 4.93018 90.5413 3.49076 88.5276 2.82151Z" fill="#D48A00" stroke="black"/>
</svg>
