<svg xmlns="http://www.w3.org/2000/svg" width="824" height="155" fill="none" viewBox="0 0 824 155">
  <path fill="#FFA600" stroke="#000" d="M378.252 69.49c-8.8-73.2-52-72.5-72.5-63 0 6.4-10.334 10.332-15.5 11.5-30 25.2-34.5 55.166-33 67 5.2 8 2.166 14 0 15.999 2.8 13.2 7.166 21.5 9 24 7.2.4 6.666 6.167 5.5 9 3.2 3.6 12.333 10.167 16.5 13 12 0 16.666 3.667 17.5 5.5 47.6 2.4 66.833-41.667 70.5-64-1.6-12 .666-17.667 2-19Z"/>
  <path fill="#D48A00" stroke="#000" d="M305.752 99.21c-7.201-8.001-12.774-40.148 2.5-44.22 15-4 27.5 6 23 41-1.475 11.466-13.398 14.101-25.5 3.22Zm4.5-83.22v.945a9.789 9.789 0 0 1-6.692 9.285l-.296.098a11.112 11.112 0 0 1-3.206.566l-1.103.03a8.504 8.504 0 0 1-4.953-1.425 6.994 6.994 0 0 1-2.906-4.123l-.844-3.377c10.72-3.375 14.266-5.856 15.5-11.5l.964.965a12.07 12.07 0 0 1 3.536 8.535Zm29.869 17.695.79-1.186a7.98 7.98 0 0 0-2.619-11.32l-.299-.174a8.58 8.58 0 0 0-3.753-1.15l-3.381-.225a14.3 14.3 0 0 0-4.166.334l-.082.019a14.032 14.032 0 0 0-7.332 4.35l-.319.36a9.656 9.656 0 0 0-1.226 1.728l-.68 1.224a6.351 6.351 0 0 0 2.402 8.604l2.532 1.447a13.659 13.659 0 0 0 4.844 1.662l.232.033c2.727.39 5.507-.062 7.971-1.294l.203-.101a12.69 12.69 0 0 0 4.883-4.31Zm24.525 17.372-.291-.087A5.289 5.289 0 0 0 357.65 55l-.045.22a5.685 5.685 0 0 0 .379 3.42l.26.582a6.103 6.103 0 0 0 3.312 3.19l.404.161a5.191 5.191 0 0 0 7.087-4.246l.055-.494a6.136 6.136 0 0 0-.278-2.625l-.047-.142a6.247 6.247 0 0 0-4.131-4.008Zm7.106 34.433-1.637-2.455a6.292 6.292 0 0 1-.869-5.022l.006-.024a10.478 10.478 0 0 1 2.092-4.49l.408-.51a13.642 13.642 0 0 1 5.899-3.471l.101-.029c-2.013 7.192-2.429 11.355-2 19l-.179-.071a8.916 8.916 0 0 1-3.821-2.929Zm-9.148 11.804-.716.269a5.608 5.608 0 0 0-3.636 5.248v.632c0 .694.101 1.384.3 2.048l.485 1.616a5.157 5.157 0 0 0 8.033 2.643l.165-.124a5.519 5.519 0 0 0 2.015-2.966l.474-1.738a6.614 6.614 0 0 0-.106-3.833l-.178-.533a5.257 5.257 0 0 0-6.836-3.262Zm-16.365 26.073 1.036-.259c.317-.079.641-.119.968-.119h.535a3.28 3.28 0 0 1 3.014 4.572l-.182.426a4.584 4.584 0 0 1-2.953 2.601l-.227.064a4.572 4.572 0 0 1-2.368.04l-1.022-.256a2.914 2.914 0 0 1-2.094-3.626l.101-.356a4.441 4.441 0 0 1 3.192-3.087Zm-23.943 6.253-.448-.056a4.488 4.488 0 0 0-1.192.01l-.193.028a4.224 4.224 0 0 0-3.584 4.779l.049.343a4.366 4.366 0 0 0 6.277 3.288 4.366 4.366 0 0 0 2.37-3.288l.098-.683a3.9 3.9 0 0 0-3.377-4.421Zm-15.071 17.502-.973 4.867c-5.109-3.691-9.018-4.924-18-5.5l2.742-3.134a14.605 14.605 0 0 1 1.641-1.602l.571-.476a10.655 10.655 0 0 1 3.454-1.924l.675-.225a7.888 7.888 0 0 1 3.904-.278l.418.076a6.948 6.948 0 0 1 5.568 8.196Zm-8.592-25.032-2.101-1.167a6.364 6.364 0 0 1-3.28-5.55c0-.586.081-1.17.242-1.734l.044-.151a7.436 7.436 0 0 1 2.828-4.009l.736-.526a9.684 9.684 0 0 0 1.214-1.029l.15-.15a9.048 9.048 0 0 1 9.003-2.27l.854.257c1.601.48 3.084 1.29 4.353 2.378l.607.52a7.358 7.358 0 0 1 2.428 7.033l-.143.716a9.307 9.307 0 0 1-1.146 2.964l-.039.065a9.814 9.814 0 0 1-6.197 4.49 9.924 9.924 0 0 1-4.828-.091l-1.321-.36a15.286 15.286 0 0 1-3.404-1.386Zm-40.881-37.1 1.294-.926a5.323 5.323 0 0 1 7.714 1.69l.171.3a6.22 6.22 0 0 1 .821 3.088v1.139c0 .471-.034.942-.101 1.41l-.019.138a9.474 9.474 0 0 1-3.872 6.368l-.503.36a14.262 14.262 0 0 1-4.376 2.109l-1.129.323c3.32-4.374 3.494-7.779 0-16Zm23.306-9.42-.523 1.568a3.38 3.38 0 0 0 1.694 4.09l.523.261.621.249a5.058 5.058 0 0 0 3.757 0l.136-.055a3.953 3.953 0 0 0 2.486-3.671v-.288a4.596 4.596 0 0 0-3.326-4.4l-.648-.185c-.349-.1-.711-.15-1.074-.15h-.065a3.775 3.775 0 0 0-3.581 2.581Zm-2.815-21.432-.855-.085a6.063 6.063 0 0 0-1.272.007l-.17.019a7.681 7.681 0 0 0-5.665 3.562l-.34.545a4.008 4.008 0 0 0 .269 4.627l.121.15c.279.349.61.652.981.9l.569.38a7.427 7.427 0 0 0 4.118 1.246h.27a6.28 6.28 0 0 0 6.131-4.918l.117-.524a4.876 4.876 0 0 0-4.274-5.908Zm14.694-13.81-.144-.041a4.043 4.043 0 0 0-2.092-.035l-.597.149a3.7 3.7 0 0 0-2.751 4.196l.011.064a4.089 4.089 0 0 0 2.597 3.157l.281.105a4.014 4.014 0 0 0 5.37-3.1l.035-.208a3.806 3.806 0 0 0-2.71-4.287Z"/>
  <path fill="#FFA600" stroke="#000" d="m8.007 98.693 1.5 48c.25 8 19.104 7 28.5 5.5 8.4-6 15.167-14.5 17.5-18-2-28.4-.833-33.834 0-33 30.5-2.5 22.5-5.5 36.5-20 2.5-34-24-17.5-41-20.5-1.182-.209-1.833-9-2-13.5 4-1.6 23.667-.667 33 0 6.4-4.4 15.333-15.834 19-21 .667-3.834 1.8-12.6 1-17s-9-4.834-13-4.5c-6.8 2.8-12.833.166-15-1.5-42.4-1.2-56.333 3.5-58 6-12.4 10-15.167 14.833-15 16 5.6 25.2 7 50.833 7 60.5 3.6 5.2 1.5 10.833 0 13Z"/>
  <path fill="#D48A00" stroke="#000" d="M90.751 9.17 89.5 5c-6.415 1.503-9.908 1.055-16-1.5l-2 5-.334 1.167a5.246 5.246 0 0 0 2.346 5.94l3.31 1.987c.451.27.925.499 1.418.683l.358.135a7.719 7.719 0 0 0 6.992-.805l2.823-1.882A5.81 5.81 0 0 0 91 10.875c0-.575-.084-1.154-.249-1.704Zm.113 19.762-.693-.347A3.927 3.927 0 0 1 88 25.073v-.439c0-.421.052-.84.154-1.25l.022-.086A4.83 4.83 0 0 1 90.7 20.15l.114-.057a5.613 5.613 0 0 1 2.51-.593h3.057A2.618 2.618 0 0 1 99 22.118v1.154c0 .482-.078.961-.23 1.419l-.364 1.091a5.472 5.472 0 0 1-1.32 2.131 5.416 5.416 0 0 1-3.815 1.587c-.836 0-1.66-.195-2.407-.568ZM46.799 24.26l-.214-.043a6.037 6.037 0 0 0-5.453 1.651l-.077.077a6.38 6.38 0 0 0-.959 1.228l-.057.096A7.287 7.287 0 0 0 39 31.02v.963a7.287 7.287 0 0 0 2.134 5.152l1.061 1.061c.527.527 1.187.9 1.909 1.081l.026.006a3.99 3.99 0 0 0 4.287-1.657l.594-.892a6.579 6.579 0 0 0 .768-1.569L51 31.5l.11-.552a5.791 5.791 0 0 0-.499-3.725l-.04-.083a5.4 5.4 0 0 0-3.772-2.88ZM20 23.242v-3.21a5.532 5.532 0 0 1 5.532-5.532h4.165c1.127 0 2.178.563 2.803 1.5l.214.356A9.026 9.026 0 0 1 34 21v.569a6.932 6.932 0 0 1-6.931 6.931h-.07a7.128 7.128 0 0 1-1.96-.274l-1.632-.467A4.697 4.697 0 0 1 20 23.242ZM8.22 46.12l-.34 1.364a6.622 6.622 0 0 0-.04 3.042l.403 1.816a2.951 2.951 0 0 0 4.968 1.447l.569-.569a3.933 3.933 0 0 0 1-1.7l.227-.795a5.798 5.798 0 0 0-.074-3.427L14.8 46.9a4.018 4.018 0 0 0-.97-1.57l-.598-.597A2.989 2.989 0 0 0 8.22 46.12Zm22.037 4.726-.497-.186a5.013 5.013 0 0 0-3.52 0l-1.14.427a3.645 3.645 0 0 0-1.752 5.435l.082.123c.374.56.887 1.013 1.489 1.314l.893.447a4.892 4.892 0 0 0 4.376 0l.245-.122a4.23 4.23 0 0 0 2.121-2.446l.035-.104a3.902 3.902 0 0 0-2.332-4.888Zm14.147 24.955-1.132-.377a11.003 11.003 0 0 0-9.583 1.283L32.5 77.5a18.217 18.217 0 0 0-2.777 2.277l-1.378 1.377a8.547 8.547 0 0 0-1.427 1.893l-.764 1.374a5.147 5.147 0 0 0 2 7L31 93l1.71.95a12.318 12.318 0 0 0 9.522 1.03l.694-.208a10.66 10.66 0 0 0 6.886-6.383l.24-.622a9.15 9.15 0 0 0-5.648-11.966Zm14.976-8.537L58.5 67l-1.215-.304a3.236 3.236 0 0 0-1.57 0l-.234.059a2.615 2.615 0 0 0-1.981 2.537V70.5c0 1.987.32 3.961.949 5.846l.051.154.558 1.395a8.028 8.028 0 0 0 4.291 4.398l.155.066c.987.423 2.05.641 3.124.641h.587c.845 0 1.678-.197 2.434-.575l.416-.208a4.22 4.22 0 0 0 2.3-4.297l-.126-1.008a8.16 8.16 0 0 0-1.308-3.515L66 72a12.576 12.576 0 0 0-6.62-4.736Zm17.694 1.186-.334-.096a4.17 4.17 0 0 0-4.978 2.367l-.03.07a4.338 4.338 0 0 0 0 3.418l.185.43a4.04 4.04 0 0 0 5.305 2.123l.157-.067a4.408 4.408 0 0 0 2.316-2.316l.094-.22a4.212 4.212 0 0 0-2.715-5.71Zm-53.781 46.495-.314.863a7.1 7.1 0 0 0 .185 5.31l.17.384a5.655 5.655 0 0 0 2.03 2.407l.165.11a5.354 5.354 0 0 0 8.052-2.762l.216-.648c.458-1.375.5-2.855.118-4.254l-.33-1.213a5.268 5.268 0 0 0-7.644-3.22l-.132.073a5.542 5.542 0 0 0-2.516 2.95Zm-7.251 4.916-.293-.195a2.875 2.875 0 0 0-4.43 1.919l-.206 1.235a3.318 3.318 0 0 0 1.568 3.388 3.345 3.345 0 0 0 2.774.307l.118-.039a3.245 3.245 0 0 0 2.051-4.103l-.26-.781a3.356 3.356 0 0 0-1.322-1.731Z"/>
  <path fill="#FFA600" stroke="#000" d="M399.5 92c-1.2 20.4-.5 34.5 0 39-4.4 17.6 21.5 18 35 16 4.4-2 11.5-11.5 14.5-16 6.4 12 9.667 13.667 10.5 13 7.2-2.4 10.333 4.333 11 8 4.8 3.6 12.333-.167 15.5-2.5 37-33.5 11.5-38 2-52.5 16-14.8 20.333-24.167 20.5-27-1.2-10 1.833-15.5 3.5-17-.8-11.2-2.667-16-3.5-17-8.8-3.6-9-11.833-8-15.5C489.3 6.1 474.167 2.167 468 2c-14.4 5.6-26.667 2.333-31 0-27.5 0-32 4.5-41 22 1.2 12.8 1.833 42.667 2 56 6 2 3.5 8.833 1.5 12Z"/>
  <path fill="#D48A00" stroke="#000" d="M467 67.5c0-27.6-18-32.5-27-31.5 2.4 7.2 4.333 22.667 5 29.5 2.8 9.2 15.833 5.167 22 2Zm-.185-57.504-.315.504-1.183 1.522a15.322 15.322 0 0 1-10.065 5.778l-.273.036a17.171 17.171 0 0 1-9.531-1.46l-1.602-.748A11.861 11.861 0 0 1 437 4.878V2.5c12.106 3.39 18.894 3.427 31 0a9.705 9.705 0 0 1-1.185 7.496Zm7.094 12.239-.231-.039a7.452 7.452 0 0 0-2.359-.014l-1.468.226a5.863 5.863 0 0 0-4.255 8.601l.398.73a7.994 7.994 0 0 0 4.489 3.756l.92.306a6.343 6.343 0 0 0 8.248-4.884l.076-.415a7.101 7.101 0 0 0-5.818-8.267Zm22.182.22L500 20.5c-.342 7.81 1.418 11.211 8 15.5l-6.072 1.518c-1.277.32-2.597.43-3.91.33l-2.19-.169A6.311 6.311 0 0 1 490 31.385v-.17a6.72 6.72 0 0 1 .821-3.22l.524-.962a11.024 11.024 0 0 1 4.746-4.578Zm9.355 29.738L511.5 53c-3.065 6.211-3.698 9.967-3.5 17l-4.357-.363a9.507 9.507 0 0 1-3.144-.82l-.755-.343a7.71 7.71 0 0 1-3.083-11.499l1.008-1.411a8.22 8.22 0 0 1 7.777-3.371Zm-39.431 22.985.067-.019a5.874 5.874 0 0 1 7.418 5.666v.504c0 .775-.133 1.544-.394 2.274l-.729 2.042a5.81 5.81 0 0 1-5.471 3.855h-.39a4.865 4.865 0 0 1-4.788-3.996l-.369-2.028a7.43 7.43 0 0 1 .327-3.864l.246-.675a6.034 6.034 0 0 1 4.083-3.76Zm28.031 42.4-2.141-.306a9.804 9.804 0 0 0-3.772.195l-1.182.295a7.217 7.217 0 0 0-4.484 3.366l-.389.668a5.786 5.786 0 0 0 4.999 8.704h1.972a9.01 9.01 0 0 0 1.881-.199l2.678-.574a6.622 6.622 0 0 0 4.726-3.929l.164-.392a5.693 5.693 0 0 0-4.452-7.828Zm-33.489 24.329L459 144.423c5.824 1.397 8.455 3.167 12 8.077l.772-1.662c.482-1.039.788-2.15.906-3.289l.103-1.001a7.028 7.028 0 0 0-.782-4.012l-.038-.07a6.757 6.757 0 0 0-2.767-2.785l-.104-.055a6.445 6.445 0 0 0-8.533 2.281Zm10.476-24.737-.686-.076a4.743 4.743 0 0 0-1.674.113l-.638.159a3.813 3.813 0 0 0-2.248 5.814l.121.183a4.406 4.406 0 0 0 3.04 1.915l.66.095a4.224 4.224 0 0 0 4.779-3.585l.035-.243a3.852 3.852 0 0 0-3.389-4.375ZM463 106v-.633a3.59 3.59 0 0 0-4.849-3.361l-1.511.567a3.993 3.993 0 0 0-1.666 6.296l.131.157c.262.314.568.589.909.817l.856.57a3.823 3.823 0 0 0 5.917-2.708L463 106Zm-46.442 19.814-1.439.48a5.064 5.064 0 0 0-3.026 2.747 5.09 5.09 0 0 0 .341 4.753 5.137 5.137 0 0 0 2.996 2.232l.931.254c1.705.465 3.52.32 5.129-.412l1.403-.638a5.35 5.35 0 0 0 2.464-2.273l.307-.552a4.353 4.353 0 0 0-2.659-6.313l-1.521-.415a8.507 8.507 0 0 0-4.926.137Zm9.382-17.844-.708-.354a5.836 5.836 0 0 0-2.609-.616h-.297a5.281 5.281 0 0 0-4.394 2.351l-.1.151a4.912 4.912 0 0 0 2.361 7.32l.151.057a5.25 5.25 0 0 0 3.35.113l1.026-.308a5.096 5.096 0 0 0 3.218-2.872l.076-.179a4.392 4.392 0 0 0-2.074-5.663Zm17.328-35.964-.651-.2a8.16 8.16 0 0 0-5.19.13l-.794.288a6.683 6.683 0 0 0-3.352 2.69c-1.392 2.188-1.376 5.009.016 7.196a6.798 6.798 0 0 0 3.279 2.689l1.608.618a7.199 7.199 0 0 0 9.349-4.26l.123-.335a6.795 6.795 0 0 0-4.388-8.817ZM430.189 51.77l-.259-.713a6.4 6.4 0 0 0-7.568-4.023l-1.39.348a5.543 5.543 0 0 0-3.407 8.226l.294.49a6.581 6.581 0 0 0 3.2 2.726l.378.15a6.9 6.9 0 0 0 5.126 0l.489-.195a5.517 5.517 0 0 0 3.137-7.01Zm-25.052 8.14-.43-.108a4.273 4.273 0 0 0-2.387.091 4.305 4.305 0 0 0-2.582 2.384 4.378 4.378 0 0 0-.006 3.432l.165.384a4.18 4.18 0 0 0 5.31 2.267l.148-.056a4.545 4.545 0 0 0 2.774-3.006l.04-.14a4.217 4.217 0 0 0-3.032-5.25Zm12.423-23.934-.257-.964a6.92 6.92 0 0 0-9.965-4.31l-.423.229a7.842 7.842 0 0 0-3.824 4.752l-.173.603a9.085 9.085 0 0 0 .465 6.257l.259.568a6.983 6.983 0 0 0 10.108 3.003l.164-.105a7.29 7.29 0 0 0 2.486-2.66l.353-.647a9.127 9.127 0 0 0 .807-6.726Z"/>
  <path fill="#FFA600" stroke="#000" d="M125.5 91c-1.2 20.4-.5 34.5 0 39-4.4 17.6 21.5 18 35 16 4.4-2 11.5-11.5 14.5-16 6.4 12 9.667 13.667 10.5 13 7.2-2.4 10.333 4.333 11 8 4.8 3.6 12.333-.167 15.5-2.5 37-33.5 11.5-38 2-52.5 16-14.8 20.333-24.167 20.5-27-1.2-10 1.833-15.5 3.5-17-.8-11.2-2.667-16-3.5-17-8.8-3.6-9-11.833-8-15.5C215.3 5.1 200.167 1.167 194 1c-14.4 5.6-26.667 2.333-31 0-27.5 0-32 4.5-41 22 1.2 12.8 1.833 42.667 2 56 6 2 3.5 8.833 1.5 12Z"/>
  <path fill="#D48A00" stroke="#000" d="M193 66.5c0-27.6-18-32.5-27-31.5 2.4 7.2 4.333 22.667 5 29.5 2.8 9.2 15.833 5.167 22 2Zm-.185-57.504-.315.504-1.183 1.522a15.322 15.322 0 0 1-10.065 5.778l-.273.036a17.171 17.171 0 0 1-9.531-1.46l-1.602-.748A11.861 11.861 0 0 1 163 3.878V1.5c12.106 3.38 18.894 3.602 31 0a9.705 9.705 0 0 1-1.185 7.496Zm7.094 12.239-.231-.039a7.452 7.452 0 0 0-2.359-.014l-1.468.226a5.863 5.863 0 0 0-4.255 8.601l.398.73a7.994 7.994 0 0 0 4.489 3.756l.92.306a6.343 6.343 0 0 0 8.248-4.884l.076-.415a7.101 7.101 0 0 0-5.818-8.267Zm22.182.22L226 19.5c-.36 8.169 1.419 11.54 8 15.5l-6.072 1.518c-1.277.32-2.597.43-3.91.33l-2.19-.169A6.311 6.311 0 0 1 216 30.385v-.17a6.72 6.72 0 0 1 .821-3.22l.524-.962a11.024 11.024 0 0 1 4.746-4.578Zm9.355 29.738L237.5 52c-2.907 6.018-3.687 9.747-3.5 17l-4.357-.363a9.507 9.507 0 0 1-3.144-.82l-.755-.343a7.71 7.71 0 0 1-3.083-11.499l1.008-1.411a8.22 8.22 0 0 1 7.777-3.371Zm-39.431 22.985.067-.019a5.874 5.874 0 0 1 7.418 5.666v.504c0 .775-.133 1.544-.394 2.274l-.729 2.042a5.81 5.81 0 0 1-5.471 3.855h-.39a4.865 4.865 0 0 1-4.788-3.996l-.369-2.028a7.43 7.43 0 0 1 .327-3.864l.246-.675a6.034 6.034 0 0 1 4.083-3.76Zm28.031 42.4-2.141-.306a9.804 9.804 0 0 0-3.772.195l-1.182.295a7.217 7.217 0 0 0-4.484 3.366l-.389.668a5.786 5.786 0 0 0 4.999 8.704h1.972a9.01 9.01 0 0 0 1.881-.199l2.678-.574a6.622 6.622 0 0 0 4.726-3.929l.164-.392a5.693 5.693 0 0 0-4.452-7.828Zm-23.013-.408-.686-.076a4.743 4.743 0 0 0-1.674.113l-.638.159a3.813 3.813 0 0 0-2.248 5.814l.121.183a4.406 4.406 0 0 0 3.04 1.915l.66.095a4.224 4.224 0 0 0 4.779-3.585l.035-.243a3.852 3.852 0 0 0-3.389-4.375ZM189 105v-.633a3.59 3.59 0 0 0-4.849-3.361l-1.511.567a3.993 3.993 0 0 0-1.666 6.296l.131.157c.262.314.568.589.909.817l.856.57a3.823 3.823 0 0 0 5.917-2.708L189 105Zm-46.442 19.814-1.439.48a5.064 5.064 0 0 0-3.026 2.747 5.09 5.09 0 0 0 .341 4.753 5.137 5.137 0 0 0 2.996 2.232l.931.254c1.705.465 3.52.32 5.129-.412l1.403-.638a5.35 5.35 0 0 0 2.464-2.273l.307-.552a4.353 4.353 0 0 0-2.659-6.313l-1.521-.415a8.507 8.507 0 0 0-4.926.137Zm9.382-17.844-.708-.354a5.836 5.836 0 0 0-2.609-.616h-.297a5.281 5.281 0 0 0-4.394 2.351l-.1.151a4.912 4.912 0 0 0 2.361 7.32l.151.057a5.25 5.25 0 0 0 3.35.113l1.026-.308a5.096 5.096 0 0 0 3.218-2.872l.076-.179a4.392 4.392 0 0 0-2.074-5.663Zm17.328-35.964-.651-.2a8.16 8.16 0 0 0-5.19.13l-.794.288a6.683 6.683 0 0 0-3.352 2.69c-1.392 2.188-1.376 5.009.016 7.196a6.798 6.798 0 0 0 3.279 2.689l1.608.618a7.199 7.199 0 0 0 9.349-4.26l.123-.335a6.795 6.795 0 0 0-4.388-8.817ZM156.189 50.77l-.259-.713a6.4 6.4 0 0 0-7.568-4.023l-1.39.348a5.543 5.543 0 0 0-3.407 8.226l.294.49a6.581 6.581 0 0 0 3.2 2.726l.378.15a6.9 6.9 0 0 0 5.126 0l.489-.195a5.517 5.517 0 0 0 3.137-7.01Zm-25.052 8.14-.43-.108a4.273 4.273 0 0 0-2.387.091 4.305 4.305 0 0 0-2.582 2.384 4.378 4.378 0 0 0-.006 3.432l.165.384a4.18 4.18 0 0 0 5.31 2.267l.148-.056a4.545 4.545 0 0 0 2.774-3.006l.04-.14a4.217 4.217 0 0 0-3.032-5.25Zm12.423-23.934-.257-.964a6.92 6.92 0 0 0-9.965-4.31l-.423.229a7.842 7.842 0 0 0-3.824 4.752l-.173.603a9.085 9.085 0 0 0 .465 6.257l.259.568a6.983 6.983 0 0 0 10.108 3.003l.164-.105a7.29 7.29 0 0 0 2.486-2.66l.353-.647a9.127 9.127 0 0 0 .807-6.726Z"/>
  <path fill="#FFA600" stroke="#000" d="M534.207 30.256c-4.8 19.6-.666 47.833 2 59.5 8 2 6.334 12.833 4.5 18 33.2 78.8 81.167 38.833 101 9-3.6-17.2 4.5-24.167 9-25.5 2.8-15.6 3.5-28.167 3.5-32.5-3.6-6.4-.5-14 1.5-17 2.8-7.6 1.167-26.5 0-35-20-6-29-2.5-31 0 .4 7.2-6.833 11.333-10.5 12.5-2.724.43-4.961 4-5.73 6-.77 2-1.983 22.822-1.27 31.5 5.6 4.8 2.334 8.666 0 10 0 18.375 0 27.088-.373 32.144-.291 3.929-4.007 6.893-7.197 4.58-11.659-8.45-16.779-44.312-17.93-63.724-8.4-5.6-4.833-18-2-23.5 2.8-13.6-5.5-15-10-14-18 3.2-31.166 20-35.5 28Z"/>
  <path fill="#D48A00" stroke="#000" d="m574.895 18.48 4.312-1.724c-4.172 10.493-3.92 15.584 2 23l-3.74.467a11.236 11.236 0 0 1-7.789-1.91l-.248-.172a10.3 10.3 0 0 1-3.836-5.004l-.301-.842a8.067 8.067 0 0 1 2.17-8.68l1.704-1.55a19.013 19.013 0 0 1 5.728-3.584Zm-27.51 37.361-1.522.585a6.482 6.482 0 0 0-4.156 6.051v2.279l.186 1.67a8.118 8.118 0 0 0 2.327 4.843l.314.313a6.41 6.41 0 0 0 2.769 1.63l.422.12a4.984 4.984 0 0 0 5.424-1.895l.637-.891a8.349 8.349 0 0 0 1.306-2.829l.678-2.712a8.376 8.376 0 0 0 .115-3.524l-.175-.963a6.202 6.202 0 0 0-8.325-4.677Zm17.322.415v.265c0 .47-.186.922-.519 1.254a1.774 1.774 0 0 0 .223 2.698l.781.558a2.588 2.588 0 0 0 2.215.382l1.444-.413a5.698 5.698 0 0 0 1.597-.738l.334-.223a5.178 5.178 0 0 0 2.039-5.942l-.296-.89a9.16 9.16 0 0 0-.834-1.812l-.443-.739a8.545 8.545 0 0 0-1.283-1.643l-.087-.087a8.114 8.114 0 0 0-3.977-2.183l-.7-.155a5.527 5.527 0 0 0-2.946.152l-.413.137a4.05 4.05 0 0 0-1.882 1.313l-.338.422a2.977 2.977 0 0 0-.557 2.574c.093.373.261.728.492 1.036l.483.643c.404.54 1.093.784 1.747.62a1.675 1.675 0 0 1 1.591.441l.622.622c.453.453.707 1.067.707 1.708Zm26.5 43.074v-.074a6 6 0 0 0-6.01-6 6.111 6.111 0 0 0-4.815 2.347l-.232.297a6.852 6.852 0 0 0-1.443 4.206v2.018a5.9 5.9 0 0 0 1.982 4.393 5.826 5.826 0 0 0 5.693 1.18 5.786 5.786 0 0 0 3.701-3.788l.852-2.769a6.13 6.13 0 0 0 .272-1.81Zm-19.872 20.135-.489-.163a4.878 4.878 0 0 0-3.256.06l-.862.323a4.498 4.498 0 0 0-2.445 6.222 4.495 4.495 0 0 0 2.93 2.35l.769.192a4.718 4.718 0 0 0 5.56-2.919l.302-.806a4.045 4.045 0 0 0-2.509-5.259Zm50.85-5.27-.124-.027a5 5 0 0 0-3.514.51l-.344.191a4.853 4.853 0 0 0-1.983 6.411l.319.638a4.486 4.486 0 0 0 5.432 2.25l.275-.092a5.187 5.187 0 0 0 3.282-3.282l.146-.437a4.77 4.77 0 0 0-3.489-6.162Zm-8.583 28.367 1.474-1.965a4.9 4.9 0 0 0-3.92-7.841h-2.706c-.825 0-1.648.101-2.448.301l-2.128.532a7.358 7.358 0 0 0-4.243 2.918l-.194.278a6.61 6.61 0 0 0 2.647 9.798l.153.071a6.966 6.966 0 0 0 6.686-.465l2.53-1.627a8.267 8.267 0 0 0 2.149-2Zm27.605-25.806-.986.109a7.357 7.357 0 0 1-6.014-2.109l-3.459-4.498a14.98 14.98 0 0 1-2.34-4.4l-.596-1.787a9.743 9.743 0 0 1 4.408-11.537l1.545-.883a14.736 14.736 0 0 1 5.227-1.793l.522-.075a17.496 17.496 0 0 1 7.281.498l3.412.975c-8.183 4.686-10.383 10.01-9 25.5Zm-15.931-45.481-.749-.214a9.48 9.48 0 0 0-5.602.122l-1.621.54a8.826 8.826 0 0 0-4.776 3.832l-.256.427a8.021 8.021 0 0 0 5.199 11.973l.61.13a9.526 9.526 0 0 0 6.024-.681l1.733-.81a8.65 8.65 0 0 0 4.196-4.213l.169-.365a7.78 7.78 0 0 0-4.927-10.74Zm13.643-9.775-1.01-.144a4.58 4.58 0 0 0-1.401.016l-.518.087a3.55 3.55 0 0 0-2.739 4.745l.079.213a4.068 4.068 0 0 0 3.36 2.614l.205.023a4.404 4.404 0 0 0 3.237-.938l.298-.238a3.782 3.782 0 0 0 1.147-1.547l.055-.138a3.447 3.447 0 0 0-2.713-4.693Zm11.468-19.244h5.32c-3.824 7.123-3.693 10.64-1.5 16.5h-3.89c-1.067 0-2.129-.156-3.152-.463l-1.224-.367a7.088 7.088 0 0 1-5.029-7.33l.022-.291a7.861 7.861 0 0 1 3.121-5.685l.609-.457a9.538 9.538 0 0 1 5.723-1.907Zm-24.633-7.233-.199-.075a5.855 5.855 0 0 0-3.738-.125l-.628.188a6.001 6.001 0 0 0-3.641 3.062l-.105.212a5.524 5.524 0 0 0 2.259 7.3l.169.095a6.156 6.156 0 0 0 8.706-3.099l.244-.61a5.31 5.31 0 0 0-3.067-6.948Zm-11.547-15.767 1.981 1.238a8.304 8.304 0 0 0 9.867-.792l.636-.557a8.06 8.06 0 0 0 1.689-2.067 8.015 8.015 0 0 0 .997-4.965l-.048-.384a5.725 5.725 0 0 0-3.873-4.724l-.749-.25c-.274 6.582-3.006 9.126-10.5 12.5Z"/>
  <path fill="#FFA600" stroke="#000" d="M678.879 52.456c-2.4 16-2 41.333-1.5 52 8.4 5.2 4.5 13.5 1.5 17-1.2 2.8-.5 5.833 0 7 1.6.8.667 4.666 0 6.5-.8 4.8-.333 8.666 0 10 1.2 6.4 8.5 7.666 12 7.5 12 0 18-3.334 19.5-5 8.4-7.6 13.5-14.5 15-17 .4-4.8-.833-29.334-1.5-41 10 24.8 20.834 25 25 22 10.8-10 21.167-24.167 25-30v21.5c5.2 3.6 3.167 8.5 1.5 10.5-.8 2-.333 5.5 0 7 4.8 5.6 2.667 12 1 14.5 0 7.6.667 11.5 1 12.5 0 3.6 3.667 4.833 5.5 5 13.6 2.4 19.667 1 21 0 7.2-7.6 12.667-14.834 14.5-17.5-1.2-16.8-1.166-50.334-1-65-3.6-7.6.167-13.834 2.5-16 4.4-36.4 3.167-45.167 2-45-5.6-7.2-18.333-7.334-24-6.5-11.6 2.8-15.833 7.833-16.5 10-2.4 4.4-6 7.5-7.5 8.5-8.4 8-16.166 23.333-19 30-5.6-12.8-7.666-14.667-8-14-11.6-.8-12.5-13-11.5-19-4.8-18.8-28.666-17.167-40-14-7.2 6.8-12.666 15.166-14.5 18.5-1.6 2-.666 7.833 0 10.5 2.8 7.2-.166 16-2 19.5Z"/>
  <path fill="#D48A00" stroke="#000" d="m716.247 18.717-.062-.27a7.256 7.256 0 0 0-8.701-5.438l-.102.023a7.564 7.564 0 0 0-5.407 4.785l-.106.292a8.136 8.136 0 0 0-.49 2.78v1.408a6.5 6.5 0 0 0 9.224 5.902l1.27-.587a7.896 7.896 0 0 0 3.745-3.633 7.843 7.843 0 0 0 .629-5.262Zm30.632 18.239-.062.071a18.138 18.138 0 0 1-8.438 5.429l-2.503.385a10.755 10.755 0 0 1-10.794-4.993l-.117-.19a11.724 11.724 0 0 1-1.389-8.989l.128-.513a12.753 12.753 0 0 1 8.084-8.918l3.591-1.282c-.655 12.36 1.831 16.564 11.5 19Zm-.065 14.292-2.688-.62a6.726 6.726 0 0 0-1.514-.172h-.665a6.068 6.068 0 0 0-5.427 8.78l.52 1.041a8.048 8.048 0 0 0 4.104 3.83l.239.1a7.453 7.453 0 0 0 5.951-.094l.059-.027a7.28 7.28 0 0 0 3.616-3.617l.172-.377a6.373 6.373 0 0 0-4.367-8.844Zm-63.29 36.583.923-.79a2.795 2.795 0 1 0-3.923-3.965l-.801.915a2.71 2.71 0 0 0-.633 2.23c.347 2.08 2.833 2.983 4.434 1.61Zm.452 15.609-6.097 1.016c5.502 5.586 5.967 9.276 1.5 17h4.83c1.107 0 2.209-.162 3.27-.48l.252-.076a10.534 10.534 0 0 0 5.201-3.511l.422-.527a8.245 8.245 0 0 0 1.768-4.335l.015-.144a7.79 7.79 0 0 0-4.758-7.969l-.783-.326a10.226 10.226 0 0 0-5.62-.648Zm15.867 28.044c-1.394 1.116-1.691 3.13-.701 4.616 1.169 1.754 3.641 2.08 5.2.662 1.404-1.276 1.495-3.465.226-4.874-1.219-1.355-3.301-1.543-4.725-.404Zm21.193-5.716.236-.284a3.604 3.604 0 0 0-5.435-4.731l-.249.273a3.612 3.612 0 1 0 5.448 4.742Zm-1.328-31.594 4.171.782c.619 5.068.826 8.272 1 14.5l-6.748 1.124a7.023 7.023 0 0 1-7.995-5.347l-.236-1.022a8.225 8.225 0 0 1 2.876-8.273l.062-.049a8.491 8.491 0 0 1 6.87-1.715Zm13.803-13.087a3.358 3.358 0 0 0 .118 4.619 3.359 3.359 0 0 0 4.75-4.75 3.358 3.358 0 0 0-4.868.131Zm24.516 3.928-.236-.295a4.71 4.71 0 1 0-7.332 5.911l.238.293a4.708 4.708 0 0 0 7.33-5.91Zm21.611-44.05a4.764 4.764 0 1 0 6.484 6.981 4.764 4.764 0 0 0-6.484-6.98Zm18.731-37.503 1.51-1.006c2.539-.455 4.473-.474 9 0l.33.44a9.663 9.663 0 0 1 1.744 7.69l-.152.76a7.941 7.941 0 0 1-8.283 6.369l-.906-.057a7.316 7.316 0 0 1-6.785-8.335l.044-.31a8.038 8.038 0 0 1 3.498-5.55Zm8.01 34.779c-1.101.944-1.205 2.623-.25 3.715.956 1.092 2.634 1.214 3.719.25 1.28-1.138 1.114-3.195-.311-4.145a2.628 2.628 0 0 0-3.158.18Zm10.457 15.715h2.543c-3.846 5.84-4.365 9.333-2 16h-1.055c-1.292 0-2.578-.159-3.831-.472l-.944-.236a8.748 8.748 0 0 1-2.217-.89l-.702-.402a6.24 6.24 0 0 1-1.6-9.53l.397-.453a7.17 7.17 0 0 1 .995-.94l.439-.34a12.99 12.99 0 0 1 7.975-2.737ZM801.328 90.79a3.237 3.237 0 1 0 4.811 4.331 3.237 3.237 0 0 0-4.811-4.33Zm-24.7 29.216-.749.45c3.441 7.046 3.152 10.051.5 14.5l2.312-.867a15.676 15.676 0 0 0 3.188-1.633l2.054-1.712a9.542 9.542 0 0 0 1.662-1.791l.897-1.255a4.764 4.764 0 0 0-.508-6.138l-.794-.794a6.186 6.186 0 0 0-4.371-1.81h-.397a7.378 7.378 0 0 0-3.794 1.05Z"/>
</svg>
