<svg width="40" height="40" viewBox="0 0 40 40" fill="none" xmlns="http://www.w3.org/2000/svg">
<path d="M0.467468 37.1778L10.4076 27.2376C7.69883 23.9247 6.36699 19.6973 6.68762 15.4299C7.00825 11.1626 8.95681 7.18166 12.1302 4.31067C15.3037 1.43968 19.4592 -0.101748 23.7373 0.0052167C28.0153 0.112182 32.0886 1.85936 35.1146 4.88535C38.1406 7.91135 39.8878 11.9847 39.9948 16.2627C40.1017 20.5408 38.5603 24.6963 35.6893 27.8698C32.8183 31.0432 28.8374 32.9917 24.5701 33.3124C20.3027 33.633 16.0753 32.3012 12.7624 29.5924L2.8222 39.5325C2.50813 39.8359 2.08747 40.0037 1.65083 39.9999C1.2142 39.9961 0.79652 39.821 0.487759 39.5122C0.179001 39.2035 0.00386047 38.7858 6.48499e-05 38.3492C-0.00372696 37.9125 0.164124 37.4919 0.467468 37.1778ZM23.2937 30.0287C25.9286 30.0287 28.5044 29.2473 30.6952 27.7834C32.8861 26.3196 34.5937 24.2389 35.602 21.8045C36.6103 19.3702 36.8742 16.6915 36.3601 14.1072C35.8461 11.5229 34.5772 9.1491 32.7141 7.28594C30.8509 5.42277 28.4771 4.15393 25.8928 3.63989C23.3085 3.12584 20.6298 3.38967 18.1955 4.39801C15.7611 5.40635 13.6804 7.11391 12.2166 9.30476C10.7527 11.4956 9.97133 14.0714 9.97133 16.7063C9.9753 20.2384 11.3802 23.6247 13.8777 26.1223C16.3753 28.6198 19.7616 30.0247 23.2937 30.0287Z" fill="black"/>
</svg>
