<svg width="14" height="12" viewBox="0 0 14 12" fill="none" xmlns="http://www.w3.org/2000/svg">
<path d="M13.2168 4.23357C12.9446 3.91995 12.6083 3.66846 12.2305 3.49613C11.8527 3.32381 11.4423 3.23467 11.027 3.23476H8.71192L8.90693 2.05022C8.97593 1.63309 8.89268 1.20505 8.67238 0.844181C8.45208 0.48331 8.1094 0.213653 7.70684 0.0843923C7.30428 -0.0448681 6.86867 -0.0251181 6.47946 0.14004C6.09025 0.305198 5.77338 0.604759 5.58664 0.984086L4.47581 3.23476H2.90185C2.13251 3.23568 1.39495 3.5417 0.850949 4.08571C0.306947 4.62971 0.000921544 5.36727 0 6.1366V9.03845C0.000921544 9.80779 0.306947 10.5453 0.850949 11.0893C1.39495 11.6334 2.13251 11.9394 2.90185 11.9403H10.6208C11.3192 11.9374 11.9934 11.684 12.5208 11.226C13.0481 10.768 13.3935 10.1359 13.4942 9.44471L13.9033 6.54286C13.961 6.13123 13.9295 5.71201 13.811 5.3136C13.6926 4.91519 13.4899 4.54687 13.2168 4.23357ZM1.16074 9.03845V6.1366C1.16074 5.67483 1.34418 5.23198 1.6707 4.90546C1.99722 4.57893 2.44008 4.3955 2.90185 4.3955H4.06259V10.7796H2.90185C2.44008 10.7796 1.99722 10.5961 1.6707 10.2696C1.34418 9.94308 1.16074 9.50022 1.16074 9.03845ZM12.7513 6.37978L12.3416 9.28163C12.2816 9.696 12.075 10.0751 11.7592 10.35C11.4434 10.6249 11.0394 10.7773 10.6208 10.7796H5.22332V4.24112C5.27802 4.19347 5.3233 4.13599 5.35681 4.07165L6.62724 1.49771C6.67488 1.41178 6.74224 1.33837 6.82377 1.28353C6.9053 1.22869 6.99868 1.19398 7.09624 1.18226C7.19379 1.17053 7.29274 1.18212 7.38494 1.21607C7.47715 1.25003 7.55998 1.30538 7.62663 1.37758C7.68365 1.44388 7.72534 1.52195 7.74871 1.60622C7.77209 1.69049 7.77658 1.77888 7.76186 1.86509L7.45542 3.72227C7.44197 3.80525 7.44671 3.89016 7.46931 3.97113C7.49191 4.0521 7.53182 4.1272 7.5863 4.19122C7.64078 4.25525 7.70851 4.30667 7.78482 4.34194C7.86113 4.37721 7.94418 4.39549 8.02825 4.3955H11.027C11.2762 4.39546 11.5225 4.44893 11.7493 4.55228C11.9761 4.65563 12.178 4.80646 12.3415 4.99457C12.505 5.18269 12.6261 5.4037 12.6968 5.64267C12.7675 5.88164 12.7861 6.13301 12.7513 6.37978Z" fill="black"/>
</svg>
