<svg width="16" height="15" viewBox="0 0 16 15" fill="none" xmlns="http://www.w3.org/2000/svg">
<path d="M11.5688 11.8758C11.5688 13.6004 10.1692 15 8.44467 15H4.07083C2.34628 15 0.946655 13.6004 0.946655 11.8758V7.50199C0.946655 5.77744 2.34628 4.37781 4.07083 4.37781H4.69566C5.03932 4.37781 5.3205 4.65899 5.3205 5.00265C5.3205 5.34631 5.03932 5.62748 4.69566 5.62748H4.07083C3.03985 5.62748 2.19632 6.47101 2.19632 7.50199V11.8758C2.19632 12.9068 3.03985 13.7503 4.07083 13.7503H8.44467C9.47565 13.7503 10.3192 12.9068 10.3192 11.8758C10.3192 11.5322 10.6003 11.251 10.944 11.251C11.2877 11.251 11.5688 11.5322 11.5688 11.8758ZM15.3991 3.68425L12.0187 0.191422C11.7813 -0.0585115 11.3814 -0.0647598 11.1377 0.178926C10.894 0.422611 10.8815 0.816257 11.1252 1.05994L14.3369 4.37156H9.0695C7.34496 4.37156 5.94533 5.77119 5.94533 7.49574V10.6199C5.94533 10.9636 6.22651 11.2447 6.57017 11.2447C6.91383 11.2447 7.195 10.9636 7.195 10.6199V7.49574C7.195 6.46476 8.03853 5.62123 9.0695 5.62123H14.3306L11.119 8.93286C10.8815 9.18279 10.8815 9.57644 11.1315 9.81387C11.2502 9.93259 11.4126 9.98883 11.5688 9.98883C11.7251 9.98883 11.8938 9.92634 12.0187 9.80138L15.3928 6.32105C16.1239 5.58999 16.1239 4.40281 15.3991 3.678V3.68425Z" fill="black"/>
</svg>
