<svg width="15" height="12" viewBox="0 0 15 12" fill="none" xmlns="http://www.w3.org/2000/svg">
<path d="M14.2199 5.45714L13.8107 2.5553C13.7102 1.86462 13.3652 1.23293 12.8384 0.774994C12.3117 0.317058 11.6382 0.0632598 10.9402 0.0597076H3.2213C2.45197 0.0606292 1.71441 0.366655 1.17041 0.910657C0.626405 1.45466 0.32038 2.19222 0.319458 2.96155V5.8634C0.32038 6.63274 0.626405 7.3703 1.17041 7.9143C1.71441 8.4583 2.45197 8.76433 3.2213 8.76525H4.79527L5.90609 11.0159C6.09284 11.3952 6.40971 11.6948 6.79892 11.86C7.18813 12.0251 7.62374 12.0449 8.0263 11.9156C8.42885 11.7864 8.77154 11.5167 8.99184 11.1558C9.21214 10.795 9.29539 10.3669 9.22639 9.94978L9.03138 8.76525H11.3465C11.7619 8.76527 12.1725 8.6761 12.5504 8.50376C12.9284 8.33143 13.265 8.07995 13.5374 7.76632C13.8098 7.4527 14.0117 7.08424 14.1295 6.68586C14.2472 6.28748 14.278 5.86847 14.2199 5.45714ZM3.2213 1.22045H4.38204V7.60451H3.2213C2.75953 7.60451 2.31668 7.42107 1.99016 7.09455C1.66363 6.76803 1.4802 6.32517 1.4802 5.8634V2.96155C1.4802 2.49978 1.66363 2.05693 1.99016 1.73041C2.31668 1.40388 2.75953 1.22045 3.2213 1.22045ZM12.6604 7.00557C12.497 7.19359 12.2951 7.34435 12.0685 7.44768C11.8418 7.551 11.5956 7.60449 11.3465 7.60451H8.34771C8.26353 7.60449 8.18035 7.62279 8.10395 7.65812C8.02755 7.69346 7.95974 7.745 7.90525 7.80916C7.85075 7.87332 7.81086 7.94856 7.78835 8.02968C7.76584 8.11079 7.76125 8.19583 7.77488 8.2789L8.08132 10.1361C8.09603 10.2223 8.09155 10.3107 8.06817 10.3949C8.0448 10.4792 8.00311 10.5573 7.94609 10.6236C7.87923 10.6957 7.79622 10.7508 7.70388 10.7846C7.61154 10.8183 7.51251 10.8296 7.41493 10.8176C7.31736 10.8056 7.22403 10.7706 7.14263 10.7155C7.06123 10.6604 6.99408 10.5867 6.9467 10.5006L5.67627 7.92836C5.64275 7.86402 5.59748 7.80654 5.54278 7.75889V1.22045H10.9402C11.3594 1.22198 11.7641 1.37409 12.0805 1.64905C12.3969 1.92401 12.6039 2.30351 12.6639 2.71838L13.0737 5.62023C13.108 5.86726 13.0889 6.1188 13.0176 6.35781C12.9463 6.59682 12.8245 6.81773 12.6604 7.00557Z" fill="black"/>
</svg>
