<svg width="100" height="40" viewBox="0 0 100 40" fill="none" xmlns="http://www.w3.org/2000/svg">
<path d="M0.5 5C0.5 2.51472 2.51472 0.5 5 0.5H99.5V39.5H5C2.51472 39.5 0.5 37.4853 0.5 35V5Z" fill="#FFA600" stroke="#D48A00"/>
<path d="M99.5 0.5V14L96.9455 15.4901C94.761 16.7644 92.1252 17.009 89.7435 16.1584C87.662 15.415 85.9482 13.8963 84.9597 11.9195L83.9803 9.96068C83.0068 8.01365 82.5 5.8667 82.5 3.68985V0.5H99.5Z" fill="#D48A00" stroke="black"/>
<path d="M9.53186 6.22133L8.7766 6.90106C7.66993 7.89706 7.14817 9.38903 7.39294 10.8577C7.74325 12.9595 9.56176 14.5 11.6926 14.5H11.8121C13.4676 14.5 14.9894 13.591 15.7743 12.1334L16.1555 11.4255C17.2011 9.48373 16.5979 7.06524 14.7629 5.84191C13.1373 4.75823 10.984 4.91442 9.53186 6.22133Z" fill="#D48A00" stroke="black"/>
<path d="M17 35L15.7339 35.2532C13.3965 35.7207 11.439 37.309 10.5 39.5H19.5H28.5L25.8524 36.4111C25.6179 36.1375 25.3609 35.884 25.084 35.6533C23.4647 34.3039 21.2885 33.8304 19.2549 34.385L17 35Z" fill="#D48A00" stroke="black"/>
<path d="M58.7965 3.53445L56.4612 2.70041C55.1905 2.24661 53.8044 2.23187 52.5244 2.65854C50.9162 3.1946 49.6078 4.38253 48.9193 5.93159L48.588 6.67695C48.2003 7.54927 48 8.49324 48 9.44783C48 11.6741 49.1018 13.7713 50.9256 15.0479C52.258 15.9806 53.8886 16.4192 55.5083 16.272L55.6648 16.2577C57.4883 16.092 59.1833 15.2483 60.415 13.8935L61.1767 13.0556C62.6116 11.4772 63.0824 9.24709 62.4078 7.22347C61.8348 5.50426 60.5031 4.14396 58.7965 3.53445Z" fill="#D48A00" stroke="black"/>
<path d="M34.4148 25H33.3068L36.5114 16.2727H37.6023L40.8068 25H39.6989L37.0909 17.6534H37.0227L34.4148 25ZM34.8239 21.5909H39.2898V22.5284H34.8239V21.5909ZM42.1662 25V16.2727H43.1719V19.4943H43.2571C43.331 19.3807 43.4332 19.2358 43.5639 19.0597C43.6974 18.8807 43.8878 18.7216 44.1349 18.5824C44.3849 18.4403 44.723 18.3693 45.1491 18.3693C45.7003 18.3693 46.1861 18.5071 46.6065 18.7827C47.027 19.0582 47.3551 19.4489 47.5909 19.9545C47.8267 20.4602 47.9446 21.0568 47.9446 21.7443C47.9446 22.4375 47.8267 23.0384 47.5909 23.5469C47.3551 24.0526 47.0284 24.4446 46.6108 24.723C46.1932 24.9986 45.7116 25.1364 45.1662 25.1364C44.7457 25.1364 44.4091 25.0668 44.1562 24.9276C43.9034 24.7855 43.7088 24.625 43.5724 24.446C43.4361 24.2642 43.331 24.1136 43.2571 23.9943H43.1378V25H42.1662ZM43.1548 21.7273C43.1548 22.2216 43.2273 22.6577 43.3722 23.0355C43.517 23.4105 43.7287 23.7045 44.0071 23.9176C44.2855 24.1278 44.6264 24.233 45.0298 24.233C45.4503 24.233 45.8011 24.1222 46.0824 23.9006C46.3665 23.6761 46.5795 23.375 46.7216 22.9972C46.8665 22.6165 46.9389 22.1932 46.9389 21.7273C46.9389 21.267 46.8679 20.8523 46.7259 20.483C46.5866 20.1108 46.375 19.8168 46.0909 19.6009C45.8097 19.3821 45.456 19.2727 45.0298 19.2727C44.6207 19.2727 44.277 19.3764 43.9986 19.5838C43.7202 19.7884 43.5099 20.0753 43.3679 20.4446C43.2259 20.8111 43.1548 21.2386 43.1548 21.7273ZM52.142 25.1364C51.5511 25.1364 51.0327 24.9957 50.5866 24.7145C50.1435 24.4332 49.7969 24.0398 49.5469 23.5341C49.2997 23.0284 49.1761 22.4375 49.1761 21.7614C49.1761 21.0795 49.2997 20.4844 49.5469 19.9759C49.7969 19.4673 50.1435 19.0724 50.5866 18.7912C51.0327 18.5099 51.5511 18.3693 52.142 18.3693C52.733 18.3693 53.25 18.5099 53.6932 18.7912C54.1392 19.0724 54.4858 19.4673 54.733 19.9759C54.983 20.4844 55.108 21.0795 55.108 21.7614C55.108 22.4375 54.983 23.0284 54.733 23.5341C54.4858 24.0398 54.1392 24.4332 53.6932 24.7145C53.25 24.9957 52.733 25.1364 52.142 25.1364ZM52.142 24.233C52.5909 24.233 52.9602 24.1179 53.25 23.8878C53.5398 23.6577 53.7543 23.3551 53.8935 22.9801C54.0327 22.6051 54.1023 22.1989 54.1023 21.7614C54.1023 21.3239 54.0327 20.9162 53.8935 20.5384C53.7543 20.1605 53.5398 19.8551 53.25 19.6222C52.9602 19.3892 52.5909 19.2727 52.142 19.2727C51.6932 19.2727 51.3239 19.3892 51.0341 19.6222C50.7443 19.8551 50.5298 20.1605 50.3906 20.5384C50.2514 20.9162 50.1818 21.3239 50.1818 21.7614C50.1818 22.1989 50.2514 22.6051 50.3906 22.9801C50.5298 23.3551 50.7443 23.6577 51.0341 23.8878C51.3239 24.1179 51.6932 24.233 52.142 24.233ZM60.7681 22.3239V18.4545H61.7738V25H60.7681V23.892H60.6999C60.5465 24.2244 60.3079 24.5071 59.984 24.7401C59.6602 24.9702 59.2511 25.0852 58.7567 25.0852C58.3477 25.0852 57.984 24.9957 57.6658 24.8168C57.3477 24.6349 57.0977 24.3622 56.9158 23.9986C56.734 23.6321 56.6431 23.1705 56.6431 22.6136V18.4545H57.6488V22.5455C57.6488 23.0227 57.7823 23.4034 58.0494 23.6875C58.3192 23.9716 58.663 24.1136 59.0806 24.1136C59.3306 24.1136 59.5849 24.0497 59.8434 23.9219C60.1048 23.794 60.3235 23.598 60.4996 23.3338C60.6786 23.0696 60.7681 22.733 60.7681 22.3239ZM66.4624 18.4545V19.3068H63.0703V18.4545H66.4624ZM64.0589 16.8864H65.0646V23.125C65.0646 23.4091 65.1058 23.6222 65.1882 23.7642C65.2734 23.9034 65.3814 23.9972 65.5121 24.0455C65.6456 24.0909 65.7862 24.1136 65.9339 24.1136C66.0447 24.1136 66.1357 24.108 66.2067 24.0966C66.2777 24.0824 66.3345 24.071 66.3771 24.0625L66.5817 24.9659C66.5135 24.9915 66.4183 25.017 66.2962 25.0426C66.174 25.071 66.0192 25.0852 65.8317 25.0852C65.5476 25.0852 65.2692 25.0241 64.9964 24.902C64.7266 24.7798 64.5021 24.5938 64.3232 24.3438C64.147 24.0938 64.0589 23.7784 64.0589 23.3977V16.8864Z" fill="black"/>
<path d="M93.5625 33.8711L99.5 33.5V39.5H82.5L85.7778 36.8778C86.9187 35.965 88.197 35.2386 89.5651 34.7256C90.8479 34.2445 92.1951 33.9566 93.5625 33.8711Z" fill="#D48A00" stroke="black"/>
<path d="M65.8871 30.1913L65.1308 30.5154C64.4262 30.8174 63.9238 31.4574 63.7977 32.2136C63.6239 33.2566 64.1998 34.2799 65.1815 34.6726L65.2547 34.7019C65.7379 34.8951 66.2715 34.9224 66.7718 34.7795L67.9483 34.4433C68.8668 34.1809 69.5 33.3414 69.5 32.3862C69.5 31.8188 69.2746 31.2746 68.8734 30.8734L68.7408 30.7408C67.9914 29.9914 66.8612 29.7738 65.8871 30.1913Z" fill="#D48A00" stroke="black"/>
</svg>
