<svg xmlns="http://www.w3.org/2000/svg" width="103" height="152" fill="none" viewBox="0 0 103 152">
  <path fill="#FFA600" stroke="#000" d="m8.007 96.693 1.5 48c.25 8 19.104 7 28.5 5.5 8.4-6 15.167-14.5 17.5-18-2-28.4-.833-33.834 0-33 30.5-2.5 22.5-5.5 36.5-20 2.5-34-24-17.5-41-20.5-1.182-.209-1.833-9-2-13.5 4-1.6 23.667-.667 33 0 6.4-4.4 15.333-15.834 19-21 .667-3.834 1.8-12.6 1-17s-9-4.834-13-4.5c-6.8 2.8-12.833.166-15-1.5-42.4-1.2-56.333 3.5-58 6-12.4 10-15.167 14.833-15 16 5.6 25.2 7 50.833 7 60.5 3.6 5.2 1.5 10.833 0 13Z"/>
  <path fill="#D48A00" stroke="#000" d="M90.751 7.17 89.5 3c-6.415 1.503-9.908 1.055-16-1.5l-2 5-.334 1.167a5.246 5.246 0 0 0 2.346 5.94l3.31 1.987c.451.27.925.499 1.418.683l.358.135a7.719 7.719 0 0 0 6.992-.805l2.823-1.882A5.81 5.81 0 0 0 91 8.875c0-.575-.084-1.154-.249-1.704Zm.113 19.762-.693-.347A3.927 3.927 0 0 1 88 23.073v-.439c0-.421.052-.84.154-1.25l.022-.086A4.83 4.83 0 0 1 90.7 18.15l.114-.057a5.613 5.613 0 0 1 2.51-.593h3.057A2.618 2.618 0 0 1 99 20.118v1.154c0 .482-.078.961-.23 1.419l-.364 1.091a5.472 5.472 0 0 1-1.32 2.131 5.416 5.416 0 0 1-3.815 1.587c-.836 0-1.66-.195-2.407-.568ZM46.799 22.26l-.214-.043a6.037 6.037 0 0 0-5.453 1.651l-.077.077a6.38 6.38 0 0 0-.959 1.228l-.057.096A7.287 7.287 0 0 0 39 29.02v.963a7.287 7.287 0 0 0 2.134 5.152l1.061 1.061c.527.527 1.187.9 1.909 1.081l.026.006a3.99 3.99 0 0 0 4.287-1.657l.594-.892a6.579 6.579 0 0 0 .768-1.569L51 29.5l.11-.552a5.791 5.791 0 0 0-.499-3.725l-.04-.083a5.4 5.4 0 0 0-3.772-2.88ZM20 21.242v-3.21a5.532 5.532 0 0 1 5.532-5.532h4.165c1.127 0 2.178.563 2.803 1.5l.214.356A9.026 9.026 0 0 1 34 19v.569a6.932 6.932 0 0 1-6.931 6.931h-.07a7.128 7.128 0 0 1-1.96-.274l-1.632-.467A4.697 4.697 0 0 1 20 21.242ZM8.22 44.12l-.34 1.364a6.622 6.622 0 0 0-.04 3.042l.403 1.816a2.951 2.951 0 0 0 4.968 1.447l.569-.569a3.933 3.933 0 0 0 1-1.7l.227-.795a5.798 5.798 0 0 0-.074-3.427L14.8 44.9a4.018 4.018 0 0 0-.97-1.57l-.598-.597A2.989 2.989 0 0 0 8.22 44.12Zm22.037 4.726-.497-.186a5.013 5.013 0 0 0-3.52 0l-1.14.427a3.645 3.645 0 0 0-1.752 5.435l.082.123c.374.56.887 1.013 1.489 1.314l.893.447a4.892 4.892 0 0 0 4.376 0l.245-.122a4.23 4.23 0 0 0 2.121-2.446l.035-.104a3.902 3.902 0 0 0-2.332-4.888Zm14.147 24.955-1.132-.377a11.003 11.003 0 0 0-9.583 1.283L32.5 75.5a18.217 18.217 0 0 0-2.777 2.277l-1.378 1.377a8.547 8.547 0 0 0-1.427 1.893l-.764 1.374a5.147 5.147 0 0 0 2 7L31 91l1.71.95a12.318 12.318 0 0 0 9.522 1.03l.694-.208a10.66 10.66 0 0 0 6.886-6.383l.24-.622a9.15 9.15 0 0 0-5.648-11.966Zm14.976-8.537L58.5 65l-1.215-.304a3.236 3.236 0 0 0-1.57 0l-.234.059a2.615 2.615 0 0 0-1.981 2.537V68.5c0 1.987.32 3.961.949 5.846l.051.154.558 1.395a8.028 8.028 0 0 0 4.291 4.398l.155.066c.987.423 2.05.641 3.124.641h.587c.845 0 1.678-.197 2.434-.575l.416-.208a4.22 4.22 0 0 0 2.3-4.297l-.126-1.008a8.16 8.16 0 0 0-1.308-3.515L66 70a12.576 12.576 0 0 0-6.62-4.736Zm17.694 1.186-.334-.096a4.17 4.17 0 0 0-4.978 2.367l-.03.07a4.338 4.338 0 0 0 0 3.418l.185.43a4.04 4.04 0 0 0 5.305 2.123l.157-.067a4.408 4.408 0 0 0 2.316-2.316l.094-.22a4.212 4.212 0 0 0-2.715-5.71Zm-53.781 46.495-.314.863a7.1 7.1 0 0 0 .185 5.31l.17.384a5.655 5.655 0 0 0 2.03 2.407l.165.11a5.354 5.354 0 0 0 8.052-2.762l.216-.648c.458-1.375.5-2.855.118-4.254l-.33-1.213a5.268 5.268 0 0 0-7.644-3.22l-.132.073a5.542 5.542 0 0 0-2.516 2.95Zm-7.251 4.916-.293-.195a2.875 2.875 0 0 0-4.43 1.919l-.206 1.235a3.318 3.318 0 0 0 1.568 3.388 3.345 3.345 0 0 0 2.774.307l.118-.039a3.245 3.245 0 0 0 2.051-4.103l-.26-.781a3.356 3.356 0 0 0-1.322-1.731Z"/>
</svg>
