<svg width="100" height="40" viewBox="0 0 100 40" fill="none" xmlns="http://www.w3.org/2000/svg">
<path d="M0.5 0.5H95C97.4853 0.5 99.5 2.51472 99.5 5V35C99.5 37.4853 97.4853 39.5 95 39.5H0.5V0.5Z" fill="#FFA600" stroke="#D48A00"/>
<path d="M35.8295 18.4545C35.7784 18.0227 35.571 17.6875 35.2074 17.4489C34.8438 17.2102 34.3977 17.0909 33.8693 17.0909C33.483 17.0909 33.1449 17.1534 32.8551 17.2784C32.5682 17.4034 32.3438 17.5753 32.1818 17.794C32.0227 18.0128 31.9432 18.2614 31.9432 18.5398C31.9432 18.7727 31.9986 18.973 32.1094 19.1406C32.223 19.3054 32.3679 19.4432 32.544 19.554C32.7202 19.6619 32.9048 19.7514 33.098 19.8224C33.2912 19.8906 33.4688 19.946 33.6307 19.9886L34.517 20.2273C34.7443 20.2869 34.9972 20.3693 35.2756 20.4744C35.5568 20.5795 35.8253 20.723 36.081 20.9048C36.3395 21.0838 36.5526 21.3139 36.7202 21.5952C36.8878 21.8764 36.9716 22.2216 36.9716 22.6307C36.9716 23.1023 36.848 23.5284 36.6009 23.9091C36.3565 24.2898 35.9986 24.5923 35.527 24.8168C35.0582 25.0412 34.4886 25.1534 33.8182 25.1534C33.1932 25.1534 32.652 25.0526 32.1946 24.8509C31.7401 24.6491 31.3821 24.3679 31.1207 24.0071C30.8622 23.6463 30.7159 23.2273 30.6818 22.75H31.7727C31.8011 23.0795 31.9119 23.3523 32.1051 23.5682C32.3011 23.7812 32.5483 23.9403 32.8466 24.0455C33.1477 24.1477 33.4716 24.1989 33.8182 24.1989C34.2216 24.1989 34.5838 24.1335 34.9048 24.0028C35.2259 23.8693 35.4801 23.6847 35.6676 23.4489C35.8551 23.2102 35.9489 22.9318 35.9489 22.6136C35.9489 22.3239 35.8679 22.0881 35.706 21.9062C35.544 21.7244 35.331 21.5767 35.0668 21.4631C34.8026 21.3494 34.517 21.25 34.2102 21.1648L33.1364 20.858C32.4545 20.6619 31.9148 20.3821 31.517 20.0185C31.1193 19.6548 30.9205 19.179 30.9205 18.5909C30.9205 18.1023 31.0526 17.6761 31.3168 17.3125C31.5838 16.946 31.9418 16.6619 32.3906 16.4602C32.8423 16.2557 33.3466 16.1534 33.9034 16.1534C34.4659 16.1534 34.9659 16.2543 35.4034 16.456C35.8409 16.6548 36.1875 16.9276 36.4432 17.2741C36.7017 17.6207 36.8381 18.0142 36.8523 18.4545H35.8295ZM38.5728 25V18.4545H39.5785V25H38.5728ZM39.0842 17.3636C38.8881 17.3636 38.7191 17.2969 38.5771 17.1634C38.4379 17.0298 38.3683 16.8693 38.3683 16.6818C38.3683 16.4943 38.4379 16.3338 38.5771 16.2003C38.7191 16.0668 38.8881 16 39.0842 16C39.2802 16 39.4478 16.0668 39.587 16.2003C39.729 16.3338 39.8001 16.4943 39.8001 16.6818C39.8001 16.8693 39.729 17.0298 39.587 17.1634C39.4478 17.2969 39.2802 17.3636 39.0842 17.3636ZM44.0625 27.5909C43.5767 27.5909 43.1591 27.5284 42.8097 27.4034C42.4602 27.2812 42.169 27.1193 41.9361 26.9176C41.706 26.7188 41.5227 26.5057 41.3864 26.2784L42.1875 25.7159C42.2784 25.8352 42.3935 25.9716 42.5327 26.125C42.6719 26.2812 42.8622 26.4162 43.1037 26.5298C43.348 26.6463 43.6676 26.7045 44.0625 26.7045C44.5909 26.7045 45.027 26.5767 45.3707 26.321C45.7145 26.0653 45.8864 25.6648 45.8864 25.1193V23.7898H45.8011C45.7273 23.9091 45.6222 24.0568 45.4858 24.233C45.3523 24.4062 45.1591 24.5611 44.9062 24.6974C44.6562 24.831 44.3182 24.8977 43.892 24.8977C43.3636 24.8977 42.8892 24.7727 42.4688 24.5227C42.0511 24.2727 41.7202 23.9091 41.4759 23.4318C41.2344 22.9545 41.1136 22.375 41.1136 21.6932C41.1136 21.0227 41.2315 20.4389 41.4673 19.9418C41.7031 19.4418 42.0313 19.0554 42.4517 18.7827C42.8722 18.5071 43.358 18.3693 43.9091 18.3693C44.3352 18.3693 44.6733 18.4403 44.9233 18.5824C45.1761 18.7216 45.3693 18.8807 45.5028 19.0597C45.6392 19.2358 45.7443 19.3807 45.8182 19.4943H45.9205V18.4545H46.892V25.1875C46.892 25.75 46.7642 26.2074 46.5085 26.5597C46.2557 26.9148 45.9148 27.1747 45.4858 27.3395C45.0597 27.5071 44.5852 27.5909 44.0625 27.5909ZM44.0284 23.9943C44.4318 23.9943 44.7727 23.902 45.0511 23.7173C45.3295 23.5327 45.5412 23.267 45.6861 22.9205C45.831 22.5739 45.9034 22.1591 45.9034 21.6761C45.9034 21.2045 45.8324 20.7884 45.6903 20.4276C45.5483 20.0668 45.3381 19.7841 45.0597 19.5795C44.7813 19.375 44.4375 19.2727 44.0284 19.2727C43.6023 19.2727 43.2472 19.3807 42.9631 19.5966C42.6818 19.8125 42.4702 20.1023 42.3281 20.4659C42.1889 20.8295 42.1193 21.233 42.1193 21.6761C42.1193 22.1307 42.1903 22.5327 42.3324 22.8821C42.4773 23.2287 42.6903 23.5014 42.9716 23.7003C43.2557 23.8963 43.608 23.9943 44.0284 23.9943ZM49.7386 21.0625V25H48.733V18.4545H49.7045V19.4773H49.7898C49.9432 19.1449 50.1761 18.8778 50.4886 18.6761C50.8011 18.4716 51.2045 18.3693 51.6989 18.3693C52.142 18.3693 52.5298 18.4602 52.8622 18.642C53.1946 18.821 53.4531 19.0938 53.6378 19.4602C53.8224 19.8239 53.9148 20.2841 53.9148 20.8409V25H52.9091V20.9091C52.9091 20.3949 52.7756 19.9943 52.5085 19.7074C52.2415 19.4176 51.875 19.2727 51.4091 19.2727C51.0881 19.2727 50.8011 19.3423 50.5483 19.4815C50.2983 19.6207 50.1009 19.8239 49.956 20.0909C49.8111 20.358 49.7386 20.6818 49.7386 21.0625ZM59.1275 25V18.4545H60.1332V25H59.1275ZM59.6388 17.3636C59.4428 17.3636 59.2738 17.2969 59.1317 17.1634C58.9925 17.0298 58.9229 16.8693 58.9229 16.6818C58.9229 16.4943 58.9925 16.3338 59.1317 16.2003C59.2738 16.0668 59.4428 16 59.6388 16C59.8349 16 60.0025 16.0668 60.1417 16.2003C60.2837 16.3338 60.3548 16.4943 60.3548 16.6818C60.3548 16.8693 60.2837 17.0298 60.1417 17.1634C60.0025 17.2969 59.8349 17.3636 59.6388 17.3636ZM62.9808 21.0625V25H61.9751V18.4545H62.9467V19.4773H63.032C63.1854 19.1449 63.4183 18.8778 63.7308 18.6761C64.0433 18.4716 64.4467 18.3693 64.9411 18.3693C65.3842 18.3693 65.772 18.4602 66.1044 18.642C66.4368 18.821 66.6953 19.0938 66.88 19.4602C67.0646 19.8239 67.157 20.2841 67.157 20.8409V25H66.1513V20.9091C66.1513 20.3949 66.0178 19.9943 65.7507 19.7074C65.4837 19.4176 65.1172 19.2727 64.6513 19.2727C64.3303 19.2727 64.0433 19.3423 63.7905 19.4815C63.5405 19.6207 63.343 19.8239 63.1982 20.0909C63.0533 20.358 62.9808 20.6818 62.9808 21.0625Z" fill="black"/>
<path d="M18.23 19.3539L20.5479 17.3652C23.7787 14.5933 23.8235 9.60514 20.6432 6.77544C17.7286 4.18227 13.2614 4.46283 10.6935 7.40033L8.68322 9.70001C7.34133 11.235 6.75761 13.2914 7.09262 15.3033C7.96344 20.5333 14.2082 22.8044 18.23 19.3539Z" fill="#D48A00" stroke="black"/>
<path d="M63.0383 30.1237L62.8183 29.82C61.143 27.5068 57.998 27.3788 56.1731 29.5496C54.6844 31.3205 54.6033 34.0318 55.9829 35.9073L56.2049 36.2092C57.9699 38.6086 61.2898 38.5947 63.0383 36.1806C64.3206 34.4101 64.3206 31.8942 63.0383 30.1237Z" fill="#D48A00" stroke="black"/>
<path d="M7.06705 32.5147L7.5 39.5H0.5L0.5 19.5L3.55926 23.3562C4.62416 24.6985 5.4716 26.2023 6.07015 27.8119C6.63138 29.3211 6.96735 30.906 7.06705 32.5147Z" fill="#D48A00" stroke="black"/>
<path d="M88.5276 2.82151L87.5375 2.49244C85.9486 1.96435 84.249 1.85884 82.6066 2.18635C81.374 2.43217 80.2015 2.91638 79.1555 3.61165L78.1167 4.30215C77.2436 4.88253 76.4301 5.54748 75.6881 6.28732L74.4831 7.48885C73.9919 7.97861 73.5715 8.53425 73.2342 9.13972L72.5665 10.3379C71.9255 11.4884 71.8232 12.8615 72.2866 14.0938C72.6619 15.0917 73.3811 15.9239 74.3155 16.4414L76.8039 17.8198L78.2992 18.6481C79.8998 19.5348 81.7006 20 83.5315 20C84.5801 20 85.6231 19.8474 86.6274 19.547L87.2345 19.3654C88.7124 18.9233 90.0571 18.1224 91.1481 17.0346C92.0706 16.1149 92.7892 15.0124 93.2575 13.7984L93.4665 13.2563C94.2739 11.1635 94.1608 8.82864 93.155 6.82311C92.2058 4.93018 90.5413 3.49076 88.5276 2.82151Z" fill="#D48A00" stroke="black"/>
</svg>
