<svg width="100" height="40" viewBox="0 0 100 40" fill="none" xmlns="http://www.w3.org/2000/svg">
<path d="M0.5 5C0.5 2.51472 2.51472 0.5 5 0.5H99.5V39.5H5C2.51472 39.5 0.5 37.4853 0.5 35V5Z" fill="#FFA600" stroke="#D48A00"/>
<path d="M99.5 0.5V14L96.9455 15.4901C94.761 16.7644 92.1252 17.009 89.7435 16.1584C87.662 15.415 85.9482 13.8963 84.9597 11.9195L83.9803 9.96068C83.0068 8.01365 82.5 5.8667 82.5 3.68985V0.5H99.5Z" fill="#D48A00" stroke="black"/>
<path d="M9.53186 6.22133L8.7766 6.90106C7.66993 7.89706 7.14817 9.38903 7.39294 10.8577C7.74325 12.9595 9.56176 14.5 11.6926 14.5H11.8121C13.4676 14.5 14.9894 13.591 15.7743 12.1334L16.1555 11.4255C17.2011 9.48373 16.5979 7.06524 14.7629 5.84191C13.1373 4.75823 10.984 4.91442 9.53186 6.22133Z" fill="#D48A00" stroke="black"/>
<path d="M17 35L15.7339 35.2532C13.3965 35.7207 11.439 37.309 10.5 39.5H19.5H28.5L25.8524 36.4111C25.6179 36.1375 25.3609 35.884 25.084 35.6533C23.4647 34.3039 21.2885 33.8304 19.2549 34.385L17 35Z" fill="#D48A00" stroke="black"/>
<path d="M58.7965 3.53445L56.4612 2.70041C55.1905 2.24661 53.8044 2.23187 52.5244 2.65854C50.9162 3.1946 49.6078 4.38253 48.9193 5.93159L48.588 6.67695C48.2003 7.54927 48 8.49324 48 9.44783C48 11.6741 49.1018 13.7713 50.9256 15.0479C52.258 15.9806 53.8886 16.4192 55.5083 16.272L55.6648 16.2577C57.4883 16.092 59.1833 15.2483 60.415 13.8935L61.1767 13.0556C62.6116 11.4772 63.0824 9.24709 62.4078 7.22347C61.8348 5.50426 60.5031 4.14396 58.7965 3.53445Z" fill="#D48A00" stroke="black"/>
<path d="M33.8295 18.4545C33.7784 18.0227 33.571 17.6875 33.2074 17.4489C32.8438 17.2102 32.3977 17.0909 31.8693 17.0909C31.483 17.0909 31.1449 17.1534 30.8551 17.2784C30.5682 17.4034 30.3438 17.5753 30.1818 17.794C30.0227 18.0128 29.9432 18.2614 29.9432 18.5398C29.9432 18.7727 29.9986 18.973 30.1094 19.1406C30.223 19.3054 30.3679 19.4432 30.544 19.554C30.7202 19.6619 30.9048 19.7514 31.098 19.8224C31.2912 19.8906 31.4688 19.946 31.6307 19.9886L32.517 20.2273C32.7443 20.2869 32.9972 20.3693 33.2756 20.4744C33.5568 20.5795 33.8253 20.723 34.081 20.9048C34.3395 21.0838 34.5526 21.3139 34.7202 21.5952C34.8878 21.8764 34.9716 22.2216 34.9716 22.6307C34.9716 23.1023 34.848 23.5284 34.6009 23.9091C34.3565 24.2898 33.9986 24.5923 33.527 24.8168C33.0582 25.0412 32.4886 25.1534 31.8182 25.1534C31.1932 25.1534 30.652 25.0526 30.1946 24.8509C29.7401 24.6491 29.3821 24.3679 29.1207 24.0071C28.8622 23.6463 28.7159 23.2273 28.6818 22.75H29.7727C29.8011 23.0795 29.9119 23.3523 30.1051 23.5682C30.3011 23.7812 30.5483 23.9403 30.8466 24.0455C31.1477 24.1477 31.4716 24.1989 31.8182 24.1989C32.2216 24.1989 32.5838 24.1335 32.9048 24.0028C33.2259 23.8693 33.4801 23.6847 33.6676 23.4489C33.8551 23.2102 33.9489 22.9318 33.9489 22.6136C33.9489 22.3239 33.8679 22.0881 33.706 21.9062C33.544 21.7244 33.331 21.5767 33.0668 21.4631C32.8026 21.3494 32.517 21.25 32.2102 21.1648L31.1364 20.858C30.4545 20.6619 29.9148 20.3821 29.517 20.0185C29.1193 19.6548 28.9205 19.179 28.9205 18.5909C28.9205 18.1023 29.0526 17.6761 29.3168 17.3125C29.5838 16.946 29.9418 16.6619 30.3906 16.4602C30.8423 16.2557 31.3466 16.1534 31.9034 16.1534C32.4659 16.1534 32.9659 16.2543 33.4034 16.456C33.8409 16.6548 34.1875 16.9276 34.4432 17.2741C34.7017 17.6207 34.8381 18.0142 34.8523 18.4545H33.8295ZM36.5728 25V18.4545H37.5785V25H36.5728ZM37.0842 17.3636C36.8881 17.3636 36.7191 17.2969 36.5771 17.1634C36.4379 17.0298 36.3683 16.8693 36.3683 16.6818C36.3683 16.4943 36.4379 16.3338 36.5771 16.2003C36.7191 16.0668 36.8881 16 37.0842 16C37.2802 16 37.4478 16.0668 37.587 16.2003C37.729 16.3338 37.8001 16.4943 37.8001 16.6818C37.8001 16.8693 37.729 17.0298 37.587 17.1634C37.4478 17.2969 37.2802 17.3636 37.0842 17.3636ZM42.0625 27.5909C41.5767 27.5909 41.1591 27.5284 40.8097 27.4034C40.4602 27.2812 40.169 27.1193 39.9361 26.9176C39.706 26.7188 39.5227 26.5057 39.3864 26.2784L40.1875 25.7159C40.2784 25.8352 40.3935 25.9716 40.5327 26.125C40.6719 26.2812 40.8622 26.4162 41.1037 26.5298C41.348 26.6463 41.6676 26.7045 42.0625 26.7045C42.5909 26.7045 43.027 26.5767 43.3707 26.321C43.7145 26.0653 43.8864 25.6648 43.8864 25.1193V23.7898H43.8011C43.7273 23.9091 43.6222 24.0568 43.4858 24.233C43.3523 24.4062 43.1591 24.5611 42.9062 24.6974C42.6562 24.831 42.3182 24.8977 41.892 24.8977C41.3636 24.8977 40.8892 24.7727 40.4688 24.5227C40.0511 24.2727 39.7202 23.9091 39.4759 23.4318C39.2344 22.9545 39.1136 22.375 39.1136 21.6932C39.1136 21.0227 39.2315 20.4389 39.4673 19.9418C39.7031 19.4418 40.0313 19.0554 40.4517 18.7827C40.8722 18.5071 41.358 18.3693 41.9091 18.3693C42.3352 18.3693 42.6733 18.4403 42.9233 18.5824C43.1761 18.7216 43.3693 18.8807 43.5028 19.0597C43.6392 19.2358 43.7443 19.3807 43.8182 19.4943H43.9205V18.4545H44.892V25.1875C44.892 25.75 44.7642 26.2074 44.5085 26.5597C44.2557 26.9148 43.9148 27.1747 43.4858 27.3395C43.0597 27.5071 42.5852 27.5909 42.0625 27.5909ZM42.0284 23.9943C42.4318 23.9943 42.7727 23.902 43.0511 23.7173C43.3295 23.5327 43.5412 23.267 43.6861 22.9205C43.831 22.5739 43.9034 22.1591 43.9034 21.6761C43.9034 21.2045 43.8324 20.7884 43.6903 20.4276C43.5483 20.0668 43.3381 19.7841 43.0597 19.5795C42.7813 19.375 42.4375 19.2727 42.0284 19.2727C41.6023 19.2727 41.2472 19.3807 40.9631 19.5966C40.6818 19.8125 40.4702 20.1023 40.3281 20.4659C40.1889 20.8295 40.1193 21.233 40.1193 21.6761C40.1193 22.1307 40.1903 22.5327 40.3324 22.8821C40.4773 23.2287 40.6903 23.5014 40.9716 23.7003C41.2557 23.8963 41.608 23.9943 42.0284 23.9943ZM47.7386 21.0625V25H46.733V18.4545H47.7045V19.4773H47.7898C47.9432 19.1449 48.1761 18.8778 48.4886 18.6761C48.8011 18.4716 49.2045 18.3693 49.6989 18.3693C50.142 18.3693 50.5298 18.4602 50.8622 18.642C51.1946 18.821 51.4531 19.0938 51.6378 19.4602C51.8224 19.8239 51.9148 20.2841 51.9148 20.8409V25H50.9091V20.9091C50.9091 20.3949 50.7756 19.9943 50.5085 19.7074C50.2415 19.4176 49.875 19.2727 49.4091 19.2727C49.0881 19.2727 48.8011 19.3423 48.5483 19.4815C48.2983 19.6207 48.1009 19.8239 47.956 20.0909C47.8111 20.358 47.7386 20.6818 47.7386 21.0625ZM61.2525 22.3239V18.4545H62.2582V25H61.2525V23.892H61.1843C61.0309 24.2244 60.7923 24.5071 60.4684 24.7401C60.1445 24.9702 59.7354 25.0852 59.2411 25.0852C58.832 25.0852 58.4684 24.9957 58.1502 24.8168C57.832 24.6349 57.582 24.3622 57.4002 23.9986C57.2184 23.6321 57.1275 23.1705 57.1275 22.6136V18.4545H58.1332V22.5455C58.1332 23.0227 58.2667 23.4034 58.5337 23.6875C58.8036 23.9716 59.1474 24.1136 59.565 24.1136C59.815 24.1136 60.0692 24.0497 60.3278 23.9219C60.5891 23.794 60.8079 23.598 60.984 23.3338C61.163 23.0696 61.2525 22.733 61.2525 22.3239ZM64.1001 27.4545V18.4545H65.0717V19.4943H65.1911C65.2649 19.3807 65.3672 19.2358 65.4979 19.0597C65.6314 18.8807 65.8217 18.7216 66.0689 18.5824C66.3189 18.4403 66.657 18.3693 67.0831 18.3693C67.6342 18.3693 68.12 18.5071 68.5405 18.7827C68.9609 19.0582 69.2891 19.4489 69.5249 19.9545C69.7607 20.4602 69.8786 21.0568 69.8786 21.7443C69.8786 22.4375 69.7607 23.0384 69.5249 23.5469C69.2891 24.0526 68.9624 24.4446 68.5447 24.723C68.1271 24.9986 67.6456 25.1364 67.1001 25.1364C66.6797 25.1364 66.343 25.0668 66.0902 24.9276C65.8374 24.7855 65.6428 24.625 65.5064 24.446C65.37 24.2642 65.2649 24.1136 65.1911 23.9943H65.1058V27.4545H64.1001ZM65.0888 21.7273C65.0888 22.2216 65.1612 22.6577 65.3061 23.0355C65.451 23.4105 65.6626 23.7045 65.9411 23.9176C66.2195 24.1278 66.5604 24.233 66.9638 24.233C67.3842 24.233 67.7351 24.1222 68.0163 23.9006C68.3004 23.6761 68.5135 23.375 68.6555 22.9972C68.8004 22.6165 68.8729 22.1932 68.8729 21.7273C68.8729 21.267 68.8018 20.8523 68.6598 20.483C68.5206 20.1108 68.3089 19.8168 68.0249 19.6009C67.7436 19.3821 67.3899 19.2727 66.9638 19.2727C66.5547 19.2727 66.2109 19.3764 65.9325 19.5838C65.6541 19.7884 65.4439 20.0753 65.3018 20.4446C65.1598 20.8111 65.0888 21.2386 65.0888 21.7273Z" fill="black"/>
<path d="M93.5625 33.8711L99.5 33.5V39.5H82.5L85.7778 36.8778C86.9187 35.965 88.197 35.2386 89.5651 34.7256C90.8479 34.2445 92.1951 33.9566 93.5625 33.8711Z" fill="#D48A00" stroke="black"/>
<path d="M65.8871 30.1913L65.1308 30.5154C64.4262 30.8174 63.9238 31.4574 63.7977 32.2136C63.6239 33.2566 64.1998 34.2799 65.1815 34.6726L65.2547 34.7019C65.7379 34.8951 66.2715 34.9224 66.7718 34.7795L67.9483 34.4433C68.8668 34.1809 69.5 33.3414 69.5 32.3862C69.5 31.8188 69.2746 31.2746 68.8734 30.8734L68.7408 30.7408C67.9914 29.9914 66.8612 29.7738 65.8871 30.1913Z" fill="#D48A00" stroke="black"/>
</svg>
